<?xml version="1.0" ?><!DOCTYPE svg  PUBLIC '-//W3C//DTD SVG 1.1//EN'
        'http://www.w3.org/Graphics/SVG/1.1/DTD/svg11.dtd'>
<svg enable-background="new 0 0 91 91" height="91px" id="Layer_1" version="1.1" viewBox="0 0 91 91" width="91px" xml:space="preserve" xmlns="http://www.w3.org/2000/svg" xmlns:xlink="http://www.w3.org/1999/xlink"><g><path d="M30.35,19.333v2.76h-9.639V32.79v3.4v36.625h44.781c3.595,0,6.519-2.926,6.519-6.52V36.19v-3.4V22.093h-9.64v-2.76h-3.399   v2.76H48.061v-2.76h-3.399v2.76H33.75v-2.76H30.35z M68.61,66.296c0,1.719-1.398,3.119-3.118,3.119H24.111V36.19H68.61V66.296z    M44.661,25.493v2.906h3.399v-2.906h10.911v2.906h3.399v-2.906h6.239v7.297H24.111v-7.297h6.239v2.906h3.4v-2.906H44.661z"/><path d="M38.073,40.157H27.448v10.625h10.625V40.157z M34.673,47.382h-3.825v-3.824h3.825V47.382z"/><path d="M51.673,40.157H41.048v10.625h10.625V40.157z M48.273,47.382h-3.825v-3.824h3.825V47.382z"/><path d="M65.273,40.157H54.648v10.625h10.625V40.157z M61.873,47.382h-3.825v-3.824h3.825V47.382z"/><path d="M38.073,54.476H27.448v10.625h10.625V54.476z M34.673,61.7h-3.825v-3.826h3.825V61.7z"/><path d="M51.673,54.476H41.048v10.625h10.625V54.476z M48.273,61.7h-3.825v-3.826h3.825V61.7z"/><path d="M65.273,54.476H54.648v10.625h10.625V54.476z M61.873,61.7h-3.825v-3.826h3.825V61.7z"/></g></svg>